<?xml version="1.0" encoding="iso-8859-1"?>
<!-- Generator: Adobe Illustrator 16.0.0, SVG Export Plug-In . SVG Version: 6.00 Build 0)  -->
<!DOCTYPE svg PUBLIC "-//W3C//DTD SVG 1.1//EN" "http://www.w3.org/Graphics/SVG/1.1/DTD/svg11.dtd">
<svg version="1.1" id="Capa_1" xmlns="http://www.w3.org/2000/svg" xmlns:xlink="http://www.w3.org/1999/xlink" x="0px" y="0px"
	 width="64px" height="64px" viewBox="0 0 64 64" style="enable-background:new 0 0 64 64;" xml:space="preserve">
<g>
	<g>
		<g id="circle_48_">
			<g>
				<path d="M31,30c0-0.764,0.294-1.45,0.766-1.977C29.668,28.147,28,29.871,28,32c0,2.209,1.791,4,4,4
					c2.129,0,3.854-1.668,3.977-3.766C35.45,32.706,34.764,33,34,33C32.343,33,31,31.657,31,30z M34,31c0.553,0,1-0.447,1-1
					s-0.447-1-1-1s-1,0.447-1,1S33.447,31,34,31z M32,0C14.327,0,0,14.327,0,32s14.327,32,32,32s32-14.327,32-32S49.673,0,32,0z
					 M32,42c-5.633,0-15-4.479-15-10c0-5.522,9.367-10,15-10s15,4.478,15,10C47,37.521,37.633,42,32,42z M32,23.997
					c-4.685,0-13.01,3.583-13.01,8.003s8.325,8.003,13.01,8.003c4.686,0,13.01-3.583,13.01-8.003S36.686,23.997,32,23.997z M32,38
					c-3.313,0-6-2.688-6-6c0-3.313,2.687-6,6-6c3.312,0,6,2.687,6,6C38,35.312,35.312,38,32,38z"/>
			</g>
		</g>
	</g>
</g>
<g>
</g>
<g>
</g>
<g>
</g>
<g>
</g>
<g>
</g>
<g>
</g>
<g>
</g>
<g>
</g>
<g>
</g>
<g>
</g>
<g>
</g>
<g>
</g>
<g>
</g>
<g>
</g>
<g>
</g>
</svg>
