<?xml version="1.0" ?><svg id="katman_1" style="enable-background:new 0 0 512 512;" version="1.1" viewBox="0 0 512 512" xml:space="preserve" xmlns="http://www.w3.org/2000/svg" xmlns:xlink="http://www.w3.org/1999/xlink"><style type="text/css">
	.st0{fill:#F1C410;}
	.st1{fill:#F49C13;}
	.st2{fill:#FFFFFF;}
</style><g><g><circle class="st0" cx="256" cy="256" r="250"/></g><path class="st1" d="M505.7,268.4c-0.2-0.3-0.5-0.6-0.8-0.9c-34.1-34-68.2-68-102.1-102.2c-4.5-4.5-9.6-6.5-15.8-6.5   c-42.4,0.1-84.8,0-127.2,0.1c-3.7,0-6.8-1.1-9.6-3.5c-7.3-6.5-14.8-12.7-22.1-19.2c-5.3-4.6-11.4-6.8-18.4-6.8   c-13.8,0-27.7,0-41.5,0c-14.2,0-28.3,0-42.5,0c-3.9,0-7.5,0.9-10.6,3c-5.7,3.9-8.3,9.4-8.3,16.3c0,71.7,0,143.5,0,215.2   c0,6,2,10.9,6.3,15.2c41.7,41.6,83.3,83.2,124.9,124.9c0.4,0.4,0.8,0.8,1.2,1.2c0.1,0.1,0.1,0.1,0.2,0.2c5.5,0.4,11.1,0.6,16.7,0.6   C389.9,506,499.2,400.7,505.7,268.4z"/><path class="st2" d="M406,326V176.6c0-10-8.1-18.2-18.2-18.2H257.5c-2.6,0-5.1-0.9-7.1-2.6l-23.9-20.6c-4.6-4-10.5-6.2-16.6-6.2   h-43.7v0h-14.5v0h-27.4c-10,0-18.2,8.1-18.2,18.2v217.6c0,10,8.1,18.2,18.2,18.2h263.7c10,0,18.2-8.1,18.2-18.2v-24.3V326z    M391.5,364.8c0,2-1.6,3.6-3.6,3.6H124.2c-2,0-3.6-1.6-3.6-3.6V215.5h270.9V364.8z M391.5,201H120.5v-53.8c0-2,1.6-3.6,3.6-3.6   h85.7c2.6,0,5.1,0.9,7.1,2.6l23.9,20.6c4.6,4,10.5,6.2,16.6,6.2h130.4c2,0,3.6,1.6,3.6,3.6V201z"/></g></svg>