<?xml version="1.0" ?><svg id="katman_1" style="enable-background:new 0 0 512 512;" version="1.1" viewBox="0 0 512 512" xml:space="preserve" xmlns="http://www.w3.org/2000/svg" xmlns:xlink="http://www.w3.org/1999/xlink"><style type="text/css">
	.st0{fill:#95A5A6;}
	.st1{fill:#7E8C8D;}
	.st2{fill:#FFFFFF;}
</style><g><g><circle class="st0" cx="256" cy="256" r="250"/></g><path class="st1" d="M501.1,305.2c-0.2-0.4-0.6-0.9-1-1.3c-55.4-55.3-110.7-110.6-166-165.9c-0.5-0.5-1-1-1.5-1.5   c-19-17.7-41.5-27.7-67.5-29.8c-11.6-0.9-23,0-34.2,2.8c-24.2,5.9-44.1,18.7-59.8,38c-14.6,17.9-22.7,38.6-24.3,61.7   c-0.8,10.6,0,21.1,2.4,31.5c2.2,9.9,5.4,19.4,10.6,28.2c24.6,41.4,49.3,82.7,74,124c1.5,2.5,3.4,4.9,5.4,7   c30.9,31,61.8,61.9,92.8,92.9c0.4,0.4,0.7,0.9,1,1.4C418.1,466.4,483.3,394.4,501.1,305.2z"/><g><path class="st2" d="M295.9,216.2c0-22-17.9-39.9-39.9-39.9c-22,0-39.9,17.9-39.9,39.9s17.9,39.9,39.9,39.9    C278,256.1,295.9,238.2,295.9,216.2z M233.6,216.2c0-12.4,10.1-22.4,22.4-22.4c12.4,0,22.4,10.1,22.4,22.4s-10.1,22.4-22.4,22.4    C243.6,238.6,233.6,228.6,233.6,216.2z"/><path class="st2" d="M158.1,266.9l40.3,67.5l9,15.1l26.1,43.7c4.8,8,13.2,12.8,22.5,12.8c9.3,0,17.7-4.8,22.5-12.8l26.1-43.7    l9-15.1l40.3-67.5c0.1-0.2,0.2-0.3,0.3-0.5c8-15.6,12.1-32.5,12.1-50.2c0-29.7-11.7-57.6-32.8-78.5c-21.2-20.9-49.2-32.1-79-31.7    c-28.9,0.4-56.1,12-76.6,32.7c-20.5,20.7-31.9,48-32.1,76.9c-0.1,17.7,4.1,35.2,12.1,50.9C157.9,266.6,158,266.7,158.1,266.9z     M254.7,123.5c25-0.3,48.6,9.1,66.4,26.7c17.8,17.6,27.6,41,27.6,66c0,14.8-3.4,28.9-10,42l-75.2,126.1c-2.3,3.8-6,4.3-7.5,4.3    c-1.5,0-5.2-0.4-7.5-4.3l-75.2-126.1c-6.7-13.2-10.1-27.5-10-42.5C163.6,165.5,204.6,124.2,254.7,123.5z"/></g></g></svg>